<svg width="156" height="44" viewBox="0 0 156 44" fill="none" xmlns="http://www.w3.org/2000/svg">
<path d="M57.5709 39.7224V26.2941C57.5709 22.9881 55.873 19.987 52.527 19.987C49.231 19.987 47.2835 22.9881 47.2835 26.2941V39.7224H41.1909V14.5954H46.8341L47.2835 17.6473C48.5819 15.1042 51.4284 14.1885 53.7757 14.1885C56.7222 14.1885 59.6685 15.4092 61.0668 18.8681C63.2642 15.3074 66.1108 14.2903 69.3069 14.2903C76.2984 14.2903 79.7442 18.6646 79.7442 26.1924V39.7224H73.6516V26.1924C73.6516 22.8863 72.3031 20.0891 69.0072 20.0891C65.7112 20.0891 63.6637 22.9881 63.6637 26.2941V39.7224H57.5709Z" fill="#253746"/>
<path d="M90.2093 27.0061C90.2093 31.7875 93.4554 34.6356 97.5005 34.6356C107.089 34.6356 107.089 19.4273 97.5005 19.4273C93.4554 19.4273 90.2093 22.2249 90.2093 27.0061ZM104.991 14.5505H110.834V39.7336H105.091L104.792 35.9074C103.393 38.8576 99.548 40.2816 96.8014 40.3327C89.5103 40.3835 84.1167 35.8057 84.1167 27.0061C84.1167 18.3592 89.7599 13.8322 96.9513 13.8832C100.247 13.8832 103.393 15.4599 104.792 17.9522L104.991 14.5505Z" fill="#253746"/>
<path d="M116.408 14.5527V39.7306H122.5V14.5527H116.408ZM123.05 7.29052C123.05 12.1225 115.858 12.1225 115.858 7.29052C115.858 2.4585 123.05 2.4585 123.05 7.29052Z" fill="#253746"/>
<path d="M134.547 27.1606C134.547 31.6875 137.843 34.5358 141.688 34.5358C145.583 34.5358 148.68 31.5349 148.68 27.1606C148.68 22.6337 145.583 19.836 141.688 19.836C137.843 19.836 134.547 22.7863 134.547 27.1606ZM134.147 4.14404V18.0559C135.596 15.4617 139.641 14.0377 142.238 14.0377C149.429 14.0377 154.772 18.5136 154.772 27.1606C154.772 35.4006 149.329 40.2837 142.088 40.2837C139.091 40.2837 136.045 39.2664 134.147 36.2653L133.748 39.7241H128.055V4.14404H134.147Z" fill="#253746"/>
<path d="M33.9246 12.4145C30.7605 7.42813 25.2586 4.125 18.9956 4.125H18.9949C9.18223 4.125 1.22754 12.227 1.22754 22.2214V22.2221C1.22754 23.4723 1.35193 24.6928 1.58895 25.8715C16.7145 16.1595 28.8393 13.2559 33.9246 12.4145Z" fill="#40C1AC"/>
<path d="M34.2887 13.0044C19.3244 19.5958 9.51338 30.9623 6.38379 34.9598C9.60266 38.2627 14.0629 40.3093 18.9934 40.3093H18.994C28.8065 40.3093 36.7616 32.2071 36.7616 22.2129V22.2122C36.7616 18.8491 35.8577 15.7024 34.2887 13.0044Z" fill="#40C1AC"/>
</svg>
