<svg xmlns="http://www.w3.org/2000/svg" viewBox="0 0 1550 471">
  <g fill="none" fill-rule="evenodd">
    <!-- Visa Logo -->
    <rect width="750" height="471" fill="#0e4595" rx="40"/>
    <path fill="#fff" d="M278.2 334.2l33.4-195.7h53.3l-33.4 195.7zm246.1-191.5c-10.6-4-27.1-8.2-47.8-8.2-52.7 0-89.9 26.5-90.2 64.6-.3 28.1 26.5 43.8 46.8 53.2 20.7 9.5 27.7 15.7 27.6 24.2-.1 13.2-16.6 19.2-32 19.2-21.3 0-32.6-3-50.1-10.3l-7-3.1-7.4 43.8a169 169 0 0059.4 10.4c56.1 0 92.5-26.2 93-66.8.2-22.3-14-39.3-44.8-53.2-18.7-9-30.1-15.1-30-24.3 0-8.1 9.7-16.8 30.6-16.8 17.4-.3 30 3.5 39.9 7.5l4.8 2.2 7.2-42.4m137.3-4.2h-41.2c-12.8 0-22.3 3.5-28 16.2l-79.2 179.4h56l11.3-29.4h68.3a3753 3753 0 016.5 29.4h49.5zm-65.4 126.4l21.3-54.8c-.4.6 4.3-11.3 7-18.6l3.6 16.8 12.4 56.6zM232.9 138.5L180.7 272l-5.6-27.2c-9.7-31.2-40-65.1-73.9-82L149 333.8h56.4l84-195.4z"/>
    <path fill="#f2ae14" d="M132 138.5H45.8l-.7 4c67 16.2 111.2 55.4 129.6 102.5l-18.7-90c-3.2-12.4-12.6-16.1-24.2-16.5"/>

    <!-- Mastercard Logo -->
    <g transform="translate(800, 0)">
      <rect width="750" height="471" fill="#f4f4f4" rx="40"/>
      <path fill="#000" d="M618.6 422.1c-1.2 0-2.2.5-3 1.2a4 4 0 000 5.9 4.2 4.2 0 006 0 4 4 0 000-5.8 4.2 4.2 0 00-3-1.3zm0 7.4a3.2 3.2 0 110-6.4 3.2 3.2 0 010 6.4zm.2-5.2h-1.7v3.9h.8v-1.5h.3l1.2 1.5h1l-1.3-1.5c.4 0 .7-.2 1-.4.1-.2.3-.4.3-.7 0-.4-.2-.7-.4-1-.3-.2-.7-.3-1.2-.3zm0 .7c.2 0 .4 0 .5.2a.4.4 0 01.2.4.4.4 0 01-.2.3l-.5.2h-1v-1zm-458.6 2.8h-8.7v-41h8.5v5s7.6-6 12-6c8.8.2 14 7.6 14 7.6s4.2-7.6 13.7-7.6c14 0 16.1 13 16.1 13v28.8h-8.4v-25.4s0-7.8-9-7.8c-9.5 0-10.4 7.8-10.4 7.8v25.4h-8.7V402s-.9-8-8.8-8c-10.3 0-10.5 8.2-10.5 8.2zm266.3-42c-4.5 0-12 6-12 6v-5h-8.6v41h8.7l-.2-25.6s.2-8.3 10.5-8.3c2 0 3.4.5 4.6 1.2l2.8-8c-1.7-.7-3.6-1.2-5.8-1.3zm123.3 0c-4.5 0-12 6-12 6v-5h-8.6v41h8.7l-.1-25.6s.2-8.3 10.4-8.3c2 0 3.4.5 4.6 1.2l2.9-8c-1.8-.7-3.7-1.2-6-1.3zm-305.7-.1c-13 0-20 11.7-20 21.6 0 10 7.9 21.7 20.4 21.7 7.3 0 13.3-5.4 13.3-5.4v4.2h8.6v-41h-8.6v5.2s-5.7-6.3-13.7-6.3zm1.7 8.3c7 0 12.8 6.1 12.8 13.7 0 7.5-5.7 13.6-12.8 13.6-7 0-12.7-6-12.7-13.6s5.7-13.7 12.7-13.7zm249.7-8.3c-13.1 0-20 11.7-20.1 21.6 0 10 7.9 21.7 20.4 21.7 7.3 0 13.4-5.4 13.4-5.4v4.2h8.6v-41H509v5.2s-5.6-6.3-13.6-6.3zm1.6 8.3c7 0 12.8 6.1 12.8 13.7 0 7.5-5.7 13.6-12.8 13.6-7 0-12.7-6-12.7-13.6s5.7-13.7 12.7-13.7zm81.1-8.3c-13.1 0-20 11.7-20 21.6-.1 10 7.8 21.7 20.4 21.7 7.3 0 13.3-5.4 13.3-5.4v4.2h8.6v-57.1H592V392s-5.7-6.3-13.7-6.3zm1.7 8.3c7 0 12.7 6.1 12.7 13.7 0 7.5-5.7 13.6-12.7 13.6s-12.7-6-12.7-13.6 5.6-13.7 12.7-13.7zm-287.2 35.1c-8.9 0-17.1-5.5-17.1-5.5l3.7-5.8s7.8 3.6 13.4 3.6c3.7 0 9.7-1.2 9.8-4.8.1-3.9-10.2-5-10.2-5s-15.4-.2-15.4-12.9c0-8 7.7-13 17.6-13 5.6 0 16.3 5 16.3 5l-4.3 6.6s-8.2-3.2-12.6-3.4c-3.6-.1-8 1.6-8 4.8 0 8.7 25.5-.7 25.5 16.9 0 11.4-10.4 13.5-18.7 13.5zm33-54v11.8H318v8.6h7.7v20.6S325 430 339.9 430c4.2 0 12.2-3 12.2-3l-3.4-9s-3.2 2.7-6.9 2.6c-6.9-.1-6.7-4.6-6.7-4.6v-20.5h14.3v-8.6H335V375h-9.4zm51.8 11c-14 0-21 11.6-21 21.7 0 10.3 6.4 22 21.9 22 6.6 0 15.9-5.8 15.9-5.8l-4-7s-6.4 4.5-12 4.5c-11.1 0-11.8-11-11.8-11h29.9s2.2-24.3-18.9-24.3zm-1.3 8.1h1c10.6 0 10.5 10 10.5 10h-21.2s-.5-9.4 9.7-10zm90.2 22.7l4 8s-6.4 4.1-13.5 4.1c-14.7 0-23-11-23-21.6C434 391 447 386 456 386c8 0 14.8 4.7 14.8 4.7l-4.4 8s-2.8-4.3-10.7-4.3c-8 0-12.2 6.9-12.2 13.4 0 7.3 5 13.5 12.3 13.5 5.8 0 10.7-4.4 10.7-4.4z"/>
      <path fill="#f79f1a" d="M624.5 278.6v-5.5h-1.4l-1.7 3.8-1.6-3.8h-1.5v5.5h1v-4.1l1.6 3.6h1l1.6-3.6v4.1zm-9.1 0v-4.5h1.8v-1h-4.7v1h1.9v4.5zm9.4-82c0 85.4-69 154.6-154.3 154.6-85.2 0-154.3-69.2-154.3-154.6S385.3 41.9 470.5 41.9c85.2 0 154.3 69.2 154.3 154.7z"/>
      <path fill="#ea001b" d="M434.5 196.6c0 85.4-69.1 154.6-154.3 154.6-85.2 0-154.3-69.2-154.3-154.6s69-154.7 154.3-154.7c85.2 0 154.3 69.2 154.3 154.7z"/>
      <path fill="#ff5f01" d="M375.3 74.8c-36 28.3-59 72.3-59 121.7s23 93.5 59 121.8c36-28.3 59.1-72.3 59.1-121.8s-23-93.4-59-121.7z"/>
    </g>
  </g>
</svg>
